<?xml version="1.0" encoding="UTF-8" standalone="no"?>
<!-- Created with Inkscape (http://www.inkscape.org/) -->

<svg
   version="1.1"
   id="svg5309"
   xml:space="preserve"
   width="1066.6667"
   height="1066.6667"
   viewBox="0 0 1066.6667 1066.6667"
   sodipodi:docname="revolver-silhouette-10-pdv.svg"
   inkscape:version="1.1.2 (b8e25be833, 2022-02-05)"
   xmlns:inkscape="http://www.inkscape.org/namespaces/inkscape"
   xmlns:sodipodi="http://sodipodi.sourceforge.net/DTD/sodipodi-0.dtd"
   xmlns="http://www.w3.org/2000/svg"
   xmlns:svg="http://www.w3.org/2000/svg"><defs
     id="defs5313"><clipPath
       clipPathUnits="userSpaceOnUse"
       id="clipPath5323"><path
         d="M 0,800 H 800 V 0 H 0 Z"
         id="path5321" /></clipPath></defs><sodipodi:namedview
     id="namedview5311"
     pagecolor="#ffffff"
     bordercolor="#666666"
     borderopacity="1.0"
     inkscape:pageshadow="2"
     inkscape:pageopacity="0.0"
     inkscape:pagecheckerboard="0"
     showgrid="false"
     inkscape:zoom="0.77906244"
     inkscape:cx="533.33337"
     inkscape:cy="533.33337"
     inkscape:window-width="1920"
     inkscape:window-height="1018"
     inkscape:window-x="-8"
     inkscape:window-y="-8"
     inkscape:window-maximized="1"
     inkscape:current-layer="g5315" /><g
     id="g5315"
     inkscape:groupmode="layer"
     inkscape:label="revolver-silhouette-10-pdv"
     transform="matrix(1.3333333,0,0,-1.3333333,0,1066.6667)"><g
       id="g5317"><g
         id="g5319"
         clip-path="url(#clipPath5323)"><path
           d="m 713.665,457.092 c 8.031,-0.154 9.985,-0.374 10.161,-0.685 0.445,-0.796 1.478,-1.001 4.23,-0.843 3.409,0.193 3.759,0.381 5.451,2.907 3.452,5.159 5.399,13.37 5.737,21.213 L 699.68,469.283 Z"
           style="fill:#c36f5b;fill-opacity:1;fill-rule:nonzero;stroke:none"
           id="path5325" /><path
           d="m 739.244,479.684 c 0.362,8.338 -1.097,16.26 -4.5,19.664 -1.617,1.616 -7.708,1.844 -9.36,0.349 -0.788,-0.712 -2.144,-0.866 -5.194,-0.59 l -4.126,0.375 -1.275,4.133 -0.106,0.345 -15.003,-34.677 z"
           style="fill:#c14541;fill-opacity:1;fill-rule:nonzero;stroke:none"
           id="path5327" /><path
           d="m 714.683,503.96 -1.167,3.789 -3.328,0.21 c -2.88,0.184 -4.747,-0.409 -13.838,-4.387 l -0.014,-0.007 3.344,-34.282 z"
           style="fill:#c63e38;fill-opacity:1;fill-rule:nonzero;stroke:none"
           id="path5329" /><path
           d="m 693.338,457.299 c 9.255,-0.05 15.769,-0.119 20.327,-0.207 l -13.985,12.191 z"
           style="fill:#ce986c;fill-opacity:1;fill-rule:nonzero;stroke:none"
           id="path5331" /><path
           d="m 600.426,498.973 h -33.631 l 1.049,-34.927 z"
           style="fill:#df4d33;fill-opacity:1;fill-rule:nonzero;stroke:none"
           id="path5333" /><path
           d="m 699.68,469.283 -3.344,34.282 -10.496,-4.592 h -85.414 l -32.582,-34.927 z"
           style="fill:#dc6244;fill-opacity:1;fill-rule:nonzero;stroke:none"
           id="path5335" /><path
           d="m 567.844,464.046 12.564,-6.588 c 57.454,-0.008 92.123,-0.043 112.93,-0.159 l 6.342,11.984 z"
           style="fill:#df955f;fill-opacity:1;fill-rule:nonzero;stroke:none"
           id="path5337" /><path
           d="m 568.623,457.459 c 4.031,-10e-4 7.961,-10e-4 11.785,-10e-4 l -12.564,6.588 z"
           style="fill:#e8b472;fill-opacity:1;fill-rule:nonzero;stroke:none"
           id="path5339" /><path
           d="m 564.51,457.459 h 4.113 l -0.779,6.587 z"
           style="fill:#f3bb73;fill-opacity:1;fill-rule:nonzero;stroke:none"
           id="path5341" /><path
           d="m 520.682,457.458 12.799,41.515 h -2.801 -18.45 l 5.059,-41.516 c 1.12,0.001 2.252,0.001 3.393,0.001"
           style="fill:#ef4d1f;fill-opacity:1;fill-rule:nonzero;stroke:none"
           id="path5343" /><path
           d="m 545.277,457.459 22.567,6.587 -1.049,34.927 h -33.314 l -12.799,-41.515 c 7.783,10e-4 15.97,10e-4 24.595,10e-4"
           style="fill:#f4683e;fill-opacity:1;fill-rule:nonzero;stroke:none"
           id="path5345" /><path
           d="m 545.277,457.459 h 4.15 15.083 l 3.334,6.587 z"
           style="fill:#f7a559;fill-opacity:1;fill-rule:nonzero;stroke:none"
           id="path5347" /><path
           d="m 493.965,457.451 c 7.321,0.003 15.089,0.004 23.324,0.006 l -5.059,41.516 H 423.356 L 412.902,483.76 Z"
           style="fill:#fb6507;fill-opacity:1;fill-rule:nonzero;stroke:none"
           id="path5349" /><path
           d="m 423.356,498.973 h -11.394 l 0.94,-15.213 z"
           style="fill:#f55a00;fill-opacity:1;fill-rule:nonzero;stroke:none"
           id="path5351" /><path
           d="m 419.876,439.234 c 0.544,0.879 8.232,0.879 8.775,0 0.545,-0.88 10.257,-0.88 10.802,0 0.543,0.879 8.231,0.879 8.776,0 0.598,-0.97 10.013,-0.854 11.002,0.134 1.067,1.067 1.067,9.464 0,10.53 -1.193,1.193 -10.084,1.057 -11.717,-0.18 -1.739,-1.315 -6.64,-1.329 -7.724,-0.022 -1.19,1.437 -10.959,1.437 -12.15,0 -1.135,-1.366 -6.966,-1.366 -8.101,0 -0.893,1.076 -6.711,1.313 -10.175,0.721 l -1.225,-11.547 c 3.03,-0.494 11.283,-0.372 11.737,0.364"
           style="fill:#ff9b13;fill-opacity:1;fill-rule:nonzero;stroke:none"
           id="path5353" /><path
           d="m 410.096,457.317 c 17.81,0.083 44.402,0.12 83.869,0.134 l -81.063,26.309 z"
           style="fill:#ff9b13;fill-opacity:1;fill-rule:nonzero;stroke:none"
           id="path5355" /><path
           d="m 412.902,483.76 -0.94,15.213 h -36.439 l -1.219,2.363 c -0.67,1.3 -1.482,3.274 -1.804,4.388 l -0.586,2.025 -9.096,-0.18 c -1.931,-0.038 -7.258,-0.096 -14.734,-0.166 l -29.131,-35.039 z"
           style="fill:#fb6800;fill-opacity:1;fill-rule:nonzero;stroke:none"
           id="path5357" /><path
           d="m 281.742,368.236 c 1.444,0.309 2.938,0.593 4.478,0.85 2.599,0.431 5.088,1.075 5.533,1.431 0.483,0.385 3.281,0.451 6.953,0.165 9.051,-0.709 11.561,-2.874 16.077,-13.873 2.779,-6.764 3.815,-13.456 2.873,-18.549 -0.805,-4.352 -2.898,-9.228 -5.339,-12.763 l 4.093,-5.721 c 5.252,5.508 7.778,12.447 8.672,22.478 1.195,13.44 2.638,18.099 8.113,26.219 4.514,6.695 10.719,14.745 14.294,18.548 3.061,3.257 3.482,3.483 6.575,3.506 5.453,0.042 16.351,5.322 18.503,8.963 0.144,0.244 0.333,0.489 0.551,0.725 l -96.674,-24.573 z"
           style="fill:#feba1a;fill-opacity:1;fill-rule:nonzero;stroke:none"
           id="path5359" /><path
           d="m 348.084,507.403 c -8.746,-0.08 -20.435,-0.174 -33.079,-0.265 l 3.948,-34.774 z"
           style="fill:#f35c00;fill-opacity:1;fill-rule:nonzero;stroke:none"
           id="path5361" /><path
           d="m 318.953,472.364 53.333,-39.762 v 7.306 h 17.174 c 10.722,0 17.331,-0.253 17.592,-0.674 0.089,-0.146 0.487,-0.267 1.087,-0.364 l 1.225,11.547 c -1.026,-0.175 -1.849,-0.422 -2.272,-0.742 -1.072,-0.809 -4.379,-0.991 -18.058,-0.991 h -16.748 v 3.375 c 0,2.86 0.196,3.376 1.278,3.376 0.704,0 1.453,0.454 1.667,1.012 0.183,0.479 5.985,0.736 34.865,0.87 l 2.806,26.443 z"
           style="fill:#ff8500;fill-opacity:1;fill-rule:nonzero;stroke:none"
           id="path5363" /><path
           d="m 276.444,375.642 96.674,24.573 c 0.663,0.717 1.596,1.341 2.365,1.533 2.344,0.589 3.536,1.573 4.282,3.538 0.399,1.047 1.138,1.545 2.293,1.545 1.567,0 1.705,0.243 1.705,2.998 0,2.974 -0.02,2.998 -2.523,3.206 -1.987,0.165 -2.811,0.667 -3.881,2.365 -0.748,1.185 -2.195,2.514 -3.216,2.951 l -1.857,0.795 v 10.381 3.075 l -53.333,39.762 z"
           style="fill:#fe9400;fill-opacity:1;fill-rule:nonzero;stroke:none"
           id="path5365" /><path
           d="m 315.005,507.138 c -4.542,-0.032 -9.207,-0.064 -13.904,-0.096 -11.861,-0.077 -21.09,-0.146 -28.278,-0.218 l 46.13,-34.46 z"
           style="fill:#f04f00;fill-opacity:1;fill-rule:nonzero;stroke:none"
           id="path5367" /><path
           d="m 272.823,506.824 c -21.489,-0.218 -24.739,-0.485 -25.555,-1.225 -0.667,-0.603 -1.213,-1.697 -1.213,-2.429 0,-1.181 -0.314,-1.281 -2.765,-0.889 -2.066,0.33 -5.018,-0.15 -11.663,-1.899 -11.042,-2.904 -12.158,-3.329 -15.298,-5.817 -2.451,-1.94 -2.763,-2.005 -9.764,-2.005 -7.134,0 -11.994,0.731 -16.968,3.022 l 0.285,-22.437 c 0.191,-0.165 0.379,-0.322 0.565,-0.474 l 128.506,-0.307 z"
           style="fill:#f64e00;fill-opacity:1;fill-rule:nonzero;stroke:none"
           id="path5369" /><path
           d="m 281.742,368.236 -5.298,7.406 -8.08,-11.647 c 3.531,1.656 8.112,3.114 13.378,4.241"
           style="fill:#ffab15;fill-opacity:1;fill-rule:nonzero;stroke:none"
           id="path5371" /><path
           d="m 262.894,329.316 c 2.509,-0.874 2.56,-0.563 0.338,2.08 -0.949,1.127 -2.529,3.601 -3.512,5.498 -1.526,2.943 -1.775,4.236 -1.711,8.847 0.018,1.27 0.109,2.509 0.261,3.706 l -4.818,-6.945 c 1.633,-5.412 6.106,-12.022 9.442,-13.186"
           style="fill:#ffab15;fill-opacity:1;fill-rule:nonzero;stroke:none"
           id="path5373" /><path
           d="m 309.675,322.366 c -3.61,-3.326 -12.412,-7.575 -19.393,-9.362 -5.873,-1.501 -24.824,-2.317 -32.075,-1.379 -8.35,1.08 -15.555,3.555 -21.197,7.179 l -3.104,-4.475 c 1.731,-1.185 3.592,-2.266 5.588,-3.241 9.532,-4.656 14.514,-5.692 29.036,-6.034 18.182,-0.429 24.964,0.778 36.097,6.422 4.944,2.505 8.8,5.173 11.783,8.3 l -4.093,5.721 c -0.852,-1.233 -1.746,-2.304 -2.642,-3.131"
           style="fill:#ffab15;fill-opacity:1;fill-rule:nonzero;stroke:none"
           id="path5375" /><path
           d="m 318.953,472.364 -128.506,0.307 c 1.107,-0.91 2.103,-1.609 2.943,-2.043 1.777,-0.918 2.213,-1.137 1.757,-3.852 l 81.297,-91.134 z"
           style="fill:#fd7700;fill-opacity:1;fill-rule:nonzero;stroke:none"
           id="path5377" /><path
           d="m 226.632,329.694 c -1.924,3.611 -3.417,8.985 -2.948,10.614 0.102,0.351 0.448,2.942 0.768,5.755 1.219,10.677 5.944,17.9 14.728,22.517 3.217,1.691 4.352,2.495 4.848,3.696 l -56.605,-5.876 3.738,-7.748 c 5.539,1.364 10.811,1.218 14.064,-0.46 5.521,-2.846 10.228,-10.447 13.128,-21.197 2.663,-9.87 7.78,-17.341 15.553,-22.666 l 3.104,4.475 c -4.553,2.925 -8.089,6.596 -10.378,10.89"
           style="fill:#ff8800;fill-opacity:1;fill-rule:nonzero;stroke:none"
           id="path5379" /><path
           d="m 259.556,370.721 c 0,-0.224 -0.463,-1.306 -1.032,-2.405 -1.719,-3.324 -5.719,-18.883 -5.704,-22.183 0.006,-1.077 0.237,-2.32 0.632,-3.631 l 4.818,6.945 c 0.607,4.768 2.23,8.818 4.495,10.972 1.319,1.255 3.222,2.461 5.599,3.576 l 8.08,11.647 -22.206,-2.306 c 2.809,-0.941 5.318,-2.082 5.318,-2.615"
           style="fill:#ff8800;fill-opacity:1;fill-rule:nonzero;stroke:none"
           id="path5381" /><path
           d="m 244.028,372.276 c 0.107,0.259 0.184,0.536 0.246,0.846 l 0.417,2.082 3.89,-0.453 c 1.51,-0.177 3.66,-0.745 5.657,-1.415 l 22.206,2.306 -81.297,91.134 c -0.15,-0.889 -0.395,-2.044 -0.721,-3.579 -0.55,-2.599 -1.005,-6.745 -1.012,-9.214 l -0.011,-4.489 -3.65,-3.337 c -0.173,-0.158 -0.336,-0.307 -0.491,-0.451 L 187.423,366.4 Z"
           style="fill:#fd7400;fill-opacity:1;fill-rule:nonzero;stroke:none"
           id="path5383" /><path
           d="m 187.423,366.4 1.839,79.306 c -3.585,-3.31 -2.97,-2.929 -26.163,-13.217 l -37.283,-55.924 z"
           style="fill:#fa6200;fill-opacity:1;fill-rule:nonzero;stroke:none"
           id="path5385" /><path
           d="m 179.271,502.122 c -7.564,5.75 -9.115,6.696 -12.051,7.358 -3.047,0.688 -7.713,-0.361 -9.272,-2.085 -1.042,-1.153 -0.992,-1.301 0.803,-2.418 10.222,-6.358 10.715,-6.813 17.09,-15.775 4.638,-6.52 9.988,-12.582 14.041,-16.057 l -0.285,22.437 c -3.186,1.466 -6.417,3.572 -10.326,6.54"
           style="fill:#f03600;fill-opacity:1;fill-rule:nonzero;stroke:none"
           id="path5387" /><path
           d="m 115.96,309.723 43.39,-5.582 c -0.478,3.089 -0.839,5.792 -1.056,7.964 -0.944,9.44 -0.112,16.343 2.69,22.334 2.383,5.093 8.305,11.639 10.529,11.639 1.567,0 4.34,2.829 4.34,4.428 0,1.781 3.45,5.023 5.348,5.023 1.018,0 2.057,0.205 2.308,0.457 0.25,0.25 2.656,1.158 5.344,2.014 0.771,0.247 1.543,0.464 2.308,0.652 l -3.738,7.748 z"
           style="fill:#ff7200;fill-opacity:1;fill-rule:nonzero;stroke:none"
           id="path5389" /><path
           d="m 156.813,229.236 c 5.333,1.321 9.02,2.971 10.99,4.942 4.331,4.331 4.153,10.099 -0.997,32.359 -3.154,13.633 -5.917,27.651 -7.456,37.604 l -43.39,5.582 z"
           style="fill:#fc741c;fill-opacity:1;fill-rule:nonzero;stroke:none"
           id="path5391" /><path
           d="m 115.772,225.401 c 18.207,0.303 31.996,1.595 41.041,3.835 l -40.853,80.487 z"
           style="fill:#f26238;fill-opacity:1;fill-rule:nonzero;stroke:none"
           id="path5393" /><path
           d="m 187.423,366.4 -61.607,10.165 -9.856,-66.842 z"
           style="fill:#fa6800;fill-opacity:1;fill-rule:nonzero;stroke:none"
           id="path5395" /><path
           d="m 163.099,432.489 c -0.024,-0.01 -0.048,-0.02 -0.072,-0.032 -26.759,-11.868 -30.706,-13.766 -33.601,-19.254 l -3.61,-36.638 z"
           style="fill:#f64d00;fill-opacity:1;fill-rule:nonzero;stroke:none"
           id="path5397" /><path
           d="m 59.747,249.267 c 0,-17.183 2.425,-21.036 17.539,-22.91 l -17.521,25.514 c -0.011,-0.869 -0.018,-1.737 -0.018,-2.604"
           style="fill:#e24630;fill-opacity:1;fill-rule:nonzero;stroke:none"
           id="path5399" /><path
           d="M 66.522,303.327 C 62.311,286.643 59.979,269.13 59.765,251.871 l 17.521,-25.514 c 1.108,-0.136 2.281,-0.264 3.53,-0.384 3.077,-0.297 13.545,-0.582 23.261,-0.633 4.081,-0.021 7.98,0 11.695,0.061 l 0.188,84.322 z"
           style="fill:#f2500e;fill-opacity:1;fill-rule:nonzero;stroke:none"
           id="path5401" /><path
           d="m 110.3,385.961 c -0.815,-1.066 -1.725,-2.227 -2.745,-3.497 -4.007,-4.996 -7.35,-9.273 -10.232,-13.128 l 28.493,7.229 z"
           style="fill:#e94c00;fill-opacity:1;fill-rule:nonzero;stroke:none"
           id="path5403" /><path
           d="m 125.816,376.565 3.61,36.638 c -0.384,-0.728 -0.749,-1.518 -1.147,-2.404 -0.978,-2.182 -2.067,-3.968 -2.418,-3.968 -0.35,0 -0.636,-0.456 -0.636,-1.012 0,-0.712 -0.719,-1.012 -2.414,-1.012 -3.413,0 -6.362,-3.007 -6.362,-6.486 0,-3.163 -1.438,-6.19 -6.149,-12.36 z"
           style="fill:#ed4100;fill-opacity:1;fill-rule:nonzero;stroke:none"
           id="path5405" /><path
           d="M 125.816,376.565 97.323,369.336 C 89.544,358.932 85.15,351.618 80.334,341.691 c -1.167,-2.407 -2.286,-4.861 -3.361,-7.354 l 38.987,-24.614 z"
           style="fill:#f55e00;fill-opacity:1;fill-rule:nonzero;stroke:none"
           id="path5407" /><path
           d="m 76.973,334.337 c -4.224,-9.797 -7.73,-20.231 -10.451,-31.01 l 49.438,6.396 z"
           style="fill:#f15700;fill-opacity:1;fill-rule:nonzero;stroke:none"
           id="path5409" /></g></g></g></svg>
